<?xml version="1.0" standalone="no"?>
<!DOCTYPE svg PUBLIC "-//W3C//DTD SVG 20010904//EN"
 "http://www.w3.org/TR/2001/REC-SVG-20010904/DTD/svg10.dtd">
<svg version="1.0" xmlns="http://www.w3.org/2000/svg"
 width="860.000000pt" height="885.000000pt" viewBox="0 0 860.000000 885.000000"
 preserveAspectRatio="xMidYMid meet">

<g transform="translate(0.000000,885.000000) scale(0.100000,-0.100000)"
fill="#000000" stroke="none">
<path d="M3095 8420 c-162 -23 -308 -51 -321 -61 -5 -5 -46 -17 -90 -28 -126
-31 -169 -44 -174 -52 -3 -4 -27 -14 -55 -22 -78 -25 -149 -51 -155 -58 -3 -3
-22 -12 -42 -20 -21 -7 -38 -16 -38 -20 0 -4 -16 -10 -35 -13 -19 -4 -40 -12
-47 -19 -7 -7 -26 -19 -43 -27 -16 -8 -36 -21 -43 -27 -7 -7 -22 -13 -32 -13
-10 0 -22 -5 -26 -11 -3 -6 -21 -18 -38 -26 -17 -8 -49 -25 -71 -38 -22 -13
-53 -32 -69 -41 -16 -9 -34 -20 -40 -25 -6 -5 -49 -38 -96 -72 -47 -35 -94
-70 -105 -79 -11 -9 -46 -37 -78 -63 -32 -25 -67 -54 -79 -63 -37 -31 -272
-268 -320 -323 -42 -49 -97 -119 -170 -218 -15 -20 -34 -43 -43 -52 -8 -9 -15
-19 -15 -23 0 -4 -24 -44 -53 -89 -79 -121 -88 -136 -124 -207 -18 -36 -47
-90 -63 -120 -17 -30 -30 -59 -30 -65 0 -5 -12 -32 -25 -60 -14 -27 -25 -56
-25 -62 0 -7 -4 -13 -10 -13 -5 0 -12 -17 -16 -37 -4 -21 -15 -57 -26 -81 -10
-23 -21 -56 -25 -72 -3 -17 -9 -30 -13 -30 -4 0 -11 -21 -15 -46 -4 -26 -11
-54 -15 -63 -5 -9 -17 -50 -26 -91 -9 -41 -21 -82 -25 -90 -8 -16 -32 -154
-51 -290 -16 -113 -16 -755 0 -872 21 -157 81 -440 101 -478 5 -9 12 -35 16
-58 4 -23 11 -44 16 -48 5 -3 9 -12 9 -19 0 -8 11 -39 25 -69 14 -30 25 -66
25 -80 0 -13 6 -31 14 -39 8 -8 19 -32 25 -54 6 -23 18 -46 26 -53 8 -7 15
-21 15 -30 0 -18 47 -120 60 -130 3 -3 22 -39 42 -81 20 -41 43 -81 52 -88 9
-8 16 -19 16 -26 0 -6 13 -30 28 -51 15 -21 43 -64 61 -94 19 -30 39 -59 46
-65 6 -5 23 -26 36 -45 13 -19 31 -44 41 -54 10 -11 18 -23 18 -27 0 -7 44
-60 82 -101 10 -10 18 -20 18 -22 0 -5 26 -33 145 -156 47 -49 100 -99 200
-190 83 -75 386 -293 425 -305 11 -3 20 -11 20 -16 0 -5 6 -9 13 -9 6 0 25
-11 41 -25 16 -14 37 -25 47 -25 10 0 24 -6 31 -13 7 -7 28 -19 46 -26 17 -7
32 -17 32 -22 0 -4 16 -11 35 -15 19 -3 39 -12 46 -20 6 -8 17 -14 24 -14 6 0
33 -11 58 -25 26 -13 81 -36 124 -51 43 -15 80 -31 83 -34 3 -4 23 -11 45 -17
22 -6 78 -23 125 -37 122 -38 223 -62 315 -76 44 -7 85 -16 91 -21 20 -16 331
-39 543 -39 211 0 541 24 551 40 3 4 41 13 85 20 129 19 421 99 510 139 22 10
70 28 107 40 36 12 72 29 78 37 7 8 18 14 24 14 6 0 28 9 49 20 20 11 43 20
51 20 8 0 21 6 29 14 8 8 45 29 83 47 66 31 113 60 142 86 7 7 17 13 22 13 9
0 191 120 215 142 7 7 36 29 64 48 27 19 54 45 60 57 5 12 19 24 30 28 12 3
21 10 21 14 0 10 46 31 70 31 24 0 51 -37 42 -59 -3 -9 -18 -36 -34 -60 -23
-37 -28 -56 -28 -105 0 -34 5 -81 11 -106 9 -42 62 -97 880 -912 l871 -868 72
0 73 0 316 316 317 315 0 43 0 43 -872 873 c-642 642 -885 878 -920 896 -67
34 -169 34 -237 -1 -27 -13 -51 -30 -53 -36 -2 -7 -16 -13 -31 -15 -34 -3 -62
32 -50 63 8 22 65 94 96 121 9 9 17 22 17 29 0 7 18 31 40 55 22 24 40 48 40
55 0 6 7 18 15 27 8 8 20 25 25 38 6 13 24 43 40 68 16 25 35 56 42 70 7 14
15 27 19 30 3 3 21 34 38 70 18 36 36 72 41 80 5 8 20 40 33 70 14 30 34 76
46 102 11 26 21 51 21 56 0 5 7 23 15 38 8 16 15 36 15 44 0 8 6 27 14 42 16
30 41 112 63 202 7 33 17 65 22 70 5 6 14 44 22 84 7 40 16 75 21 78 4 3 8 24
8 46 0 60 20 219 30 243 5 11 14 99 20 196 11 183 0 468 -20 539 -6 19 -17 89
-25 155 -17 144 -45 288 -56 296 -5 3 -14 32 -20 65 -6 32 -14 66 -18 74 -5 9
-12 31 -16 50 -4 19 -18 59 -31 88 -13 29 -24 57 -24 63 0 25 -179 418 -200
439 -3 3 -12 19 -20 35 -8 17 -39 65 -67 108 -29 43 -53 82 -53 87 0 4 -3 10
-7 12 -5 2 -30 35 -57 75 -27 39 -59 82 -72 94 -13 12 -24 26 -24 30 0 5 -10
19 -22 32 -13 13 -43 48 -68 77 -53 64 -175 194 -209 224 -13 12 -39 35 -58
53 -57 53 -112 98 -228 189 -60 47 -118 92 -128 100 -9 8 -21 14 -26 14 -5 0
-16 6 -23 14 -8 7 -27 21 -43 30 -17 9 -43 25 -60 36 -59 38 -140 81 -162 87
-13 3 -23 9 -23 13 0 4 -13 13 -30 20 -16 7 -30 16 -30 20 0 5 -22 14 -50 21
-27 7 -50 16 -50 19 0 4 -18 13 -40 20 -22 7 -40 16 -40 20 0 3 -46 21 -102
40 -57 19 -105 37 -108 42 -6 7 -18 11 -170 48 -46 11 -87 24 -90 28 -7 10
-213 48 -360 67 -170 22 -790 19 -955 -5z m670 -670 c77 -5 149 -14 160 -19
11 -5 63 -15 115 -21 52 -6 97 -15 100 -19 3 -4 34 -11 69 -14 35 -4 69 -11
75 -15 6 -5 39 -17 73 -26 34 -9 75 -23 90 -31 15 -8 38 -15 51 -15 12 0 22
-4 22 -10 0 -5 8 -10 18 -10 10 0 44 -13 77 -30 33 -16 68 -30 78 -30 9 0 17
-4 17 -8 0 -4 16 -14 35 -21 19 -7 35 -16 35 -21 0 -5 18 -15 40 -21 22 -7 40
-15 40 -19 0 -5 10 -10 23 -14 13 -3 36 -17 53 -31 16 -14 33 -25 37 -25 7 0
64 -37 77 -50 3 -3 30 -22 60 -42 88 -59 160 -120 295 -253 93 -91 225 -236
225 -247 0 -5 8 -17 18 -27 30 -34 42 -50 42 -57 0 -4 17 -30 38 -58 21 -28
45 -62 52 -76 7 -14 16 -27 19 -30 13 -10 48 -77 60 -113 7 -20 16 -37 21 -37
5 0 14 -16 20 -35 6 -19 15 -35 20 -35 5 0 12 -14 15 -32 4 -17 18 -51 31 -76
13 -25 24 -53 24 -63 0 -11 4 -19 9 -19 5 0 12 -17 16 -37 4 -21 12 -49 20
-63 7 -14 18 -50 25 -80 7 -30 17 -58 22 -61 5 -3 12 -35 15 -70 3 -35 9 -68
13 -74 11 -14 28 -113 36 -210 4 -44 12 -83 17 -87 15 -9 15 -477 0 -486 -6
-4 -14 -46 -18 -94 -4 -48 -13 -116 -21 -150 -8 -35 -19 -92 -24 -127 -5 -36
-13 -67 -17 -70 -5 -3 -16 -37 -26 -76 -10 -38 -23 -74 -28 -80 -5 -5 -9 -18
-9 -30 -1 -11 -9 -38 -20 -60 -11 -22 -19 -45 -20 -51 0 -6 -7 -17 -15 -24 -8
-7 -13 -16 -10 -20 3 -5 1 -11 -5 -15 -5 -3 -10 -17 -10 -30 0 -13 -7 -30 -15
-39 -8 -8 -15 -22 -15 -30 0 -9 -4 -16 -10 -16 -5 0 -10 -7 -10 -15 0 -8 -4
-15 -10 -15 -5 0 -10 -5 -10 -10 0 -15 -41 -102 -62 -130 -32 -43 -105 -158
-112 -175 -3 -9 -15 -19 -27 -22 -11 -3 -18 -11 -15 -18 2 -7 -10 -29 -27 -47
-18 -19 -89 -95 -158 -169 -70 -74 -143 -146 -163 -159 -20 -14 -36 -30 -36
-37 0 -6 -20 -26 -45 -44 -25 -18 -45 -36 -45 -40 0 -4 -24 -22 -52 -40 -29
-19 -54 -37 -56 -41 -2 -4 -29 -22 -60 -40 -31 -17 -59 -35 -62 -38 -3 -4 -30
-20 -60 -36 -30 -16 -57 -32 -60 -35 -7 -9 -137 -69 -150 -69 -5 0 -10 -4 -10
-9 0 -4 -25 -16 -55 -26 -30 -9 -55 -20 -55 -25 0 -4 -19 -10 -42 -14 -23 -4
-47 -11 -53 -15 -19 -15 -159 -59 -210 -66 -27 -4 -55 -11 -60 -15 -6 -5 -46
-16 -90 -25 -44 -9 -100 -21 -125 -26 -75 -16 -563 -23 -696 -9 -64 6 -124 16
-133 20 -9 5 -49 14 -88 20 -40 7 -75 15 -78 20 -3 4 -29 11 -58 15 -28 4 -68
13 -87 20 -19 7 -54 18 -77 25 -24 7 -43 16 -43 20 0 4 -18 10 -39 14 -22 3
-52 13 -68 21 -15 8 -55 26 -88 41 -117 51 -239 115 -273 144 -10 8 -39 26
-65 40 -50 26 -53 28 -177 127 -111 87 -115 91 -235 208 -56 55 -135 141 -174
190 -40 50 -79 94 -87 98 -8 4 -14 14 -14 21 0 7 -17 35 -38 63 -75 103 -186
301 -224 403 -12 30 -24 57 -28 60 -5 3 -22 50 -40 105 -18 55 -38 114 -45
130 -7 17 -16 46 -20 65 -3 19 -10 46 -15 60 -4 14 -13 59 -20 100 -6 41 -15
82 -20 91 -4 9 -13 76 -20 150 -6 74 -15 156 -21 182 -12 62 -12 156 1 226 5
31 16 115 24 186 18 170 65 402 91 455 7 14 23 59 35 100 12 41 34 102 49 135
16 33 36 83 46 110 10 28 24 57 31 65 6 8 24 40 40 70 15 30 33 58 38 62 7 5
7 8 1 8 -7 0 -7 3 0 8 11 8 65 88 65 97 0 3 27 41 60 84 33 43 60 82 60 85 0
3 8 14 18 24 9 10 44 49 77 86 97 111 286 294 335 326 12 8 30 22 39 30 9 9
36 29 61 45 25 17 47 32 50 35 13 13 70 50 77 50 4 0 21 11 37 25 17 14 40 28
53 31 13 4 23 9 23 14 0 4 18 12 40 19 22 6 40 16 40 21 0 5 16 14 35 21 19 7
35 16 35 20 0 4 18 10 40 14 22 4 40 10 40 14 0 8 75 41 94 41 8 0 17 4 20 9
4 5 24 12 46 16 22 4 40 10 40 14 0 3 33 15 73 25 39 10 75 23 78 27 3 5 34
12 70 15 35 4 69 11 75 15 6 5 49 14 95 19 46 6 100 15 119 21 81 24 312 33
505 19z"/>
<path d="M3866 7650 c-42 -33 -76 -62 -76 -65 0 -2 11 -12 25 -21 25 -16 27
-16 83 28 58 46 97 55 112 27 5 -8 18 -25 30 -39 12 -14 34 -41 49 -60 14 -19
32 -41 39 -49 7 -8 38 -45 68 -82 30 -38 57 -69 59 -69 3 0 12 16 20 36 l15
37 -62 71 c-35 40 -81 94 -103 120 -126 152 -145 157 -259 66z"/>
<path d="M3168 7607 c-8 -29 -28 -99 -43 -157 -30 -117 -86 -326 -140 -529
-19 -74 -34 -136 -31 -138 2 -2 37 24 76 59 40 35 90 77 112 95 45 36 78 82
107 148 11 25 34 66 51 91 16 25 30 47 30 50 0 3 32 59 70 123 39 65 70 123
70 129 0 7 5 12 10 12 6 0 10 6 10 13 0 6 7 25 15 41 15 28 10 42 -15 47 -3 0
-14 2 -25 4 -35 6 -65 14 -76 20 -5 4 -20 8 -32 10 -12 2 -29 6 -37 8 -45 12
-68 17 -101 21 -35 5 -35 5 -51 -47z"/>
<path d="M3597 7603 c-6 -16 -17 -34 -24 -41 -7 -7 -13 -20 -13 -28 0 -8 -4
-14 -9 -14 -5 0 -11 -10 -15 -22 -3 -13 -25 -53 -48 -90 -24 -36 -55 -88 -71
-115 -15 -26 -52 -88 -82 -138 -30 -49 -55 -93 -55 -98 0 -8 80 54 215 167 50
42 143 118 207 171 128 104 138 115 117 127 -86 51 -191 108 -199 108 -6 0
-16 -12 -23 -27z"/>
<path d="M3949 7570 c-23 -7 -240 -174 -264 -204 -5 -7 -82 -71 -170 -141
-284 -228 -320 -258 -340 -279 -36 -37 -356 -291 -371 -294 -32 -7 -11 30 44
77 46 40 60 60 70 97 7 26 11 48 10 49 -7 6 -207 -163 -222 -187 -29 -48 -20
-81 44 -155 8 -9 36 -44 63 -78 68 -87 141 -174 200 -240 10 -11 37 -45 60
-75 23 -30 49 -62 57 -70 9 -8 31 -35 50 -60 19 -25 47 -58 62 -75 15 -16 28
-33 28 -37 0 -3 17 -24 38 -46 20 -22 51 -56 67 -77 17 -20 35 -42 40 -49 6
-6 24 -27 40 -46 48 -55 67 -51 175 36 52 42 124 102 160 133 36 32 148 124
250 206 102 81 203 165 225 185 29 26 422 346 463 376 2 1 6 20 9 41 4 33 0
43 -29 74 -52 57 -121 139 -143 170 -11 16 -23 29 -26 29 -4 0 -35 -23 -70
-51 -35 -29 -80 -59 -99 -67 -47 -21 -119 -24 -144 -6 -11 8 -28 14 -37 14
-22 0 -64 40 -88 86 -15 28 -21 57 -21 103 0 81 19 114 111 187 66 52 81 75
59 89 -6 3 -36 39 -67 78 -31 40 -60 74 -63 77 -3 3 -21 25 -40 50 -64 83 -81
93 -131 80z"/>
<path d="M4305 7338 c-2 -7 -9 -38 -15 -68 -9 -50 -16 -60 -61 -95 -100 -78
-137 -162 -104 -236 10 -21 22 -39 26 -39 4 0 10 -8 14 -19 9 -29 81 -52 140
-45 41 5 62 16 118 62 37 30 69 58 72 62 2 4 9 39 15 78 10 63 9 74 -5 88 -9
9 -42 49 -73 88 -31 39 -67 82 -79 96 -13 14 -23 28 -23 32 0 13 -20 9 -25 -4z
m15 -273 c54 -28 52 -107 -3 -130 -27 -11 -36 -11 -59 3 -56 33 -59 110 -6
132 32 12 35 12 68 -5z"/>
<path d="M4546 7032 c-17 -33 -21 -58 -8 -64 4 -1 23 -23 42 -48 19 -25 50
-61 70 -81 19 -20 44 -49 56 -64 25 -35 44 -26 44 20 0 33 -30 77 -130 195
-16 19 -36 44 -43 54 -14 19 -15 19 -31 -12z"/>
<path d="M2300 5920 c-14 -4 -65 -13 -115 -19 -49 -7 -92 -16 -95 -20 -3 -5
-68 -20 -145 -35 -256 -50 -291 -60 -338 -99 -24 -20 -53 -56 -66 -86 l-24
-51 28 -142 c15 -79 31 -147 35 -153 4 -5 11 -30 14 -55 18 -119 30 -185 36
-190 4 -3 19 -66 33 -140 52 -265 78 -385 88 -403 6 -10 14 -53 19 -95 10 -84
17 -117 31 -147 4 -11 27 -114 50 -230 27 -138 49 -223 63 -247 28 -48 89 -96
132 -104 38 -7 185 11 211 26 10 5 122 30 248 55 127 26 239 50 250 55 11 5
39 14 63 20 52 13 91 54 114 120 20 59 18 92 -16 250 -14 69 -33 161 -42 205
-8 44 -21 103 -29 130 -8 28 -22 97 -31 155 -10 58 -21 107 -25 110 -9 7 -39
154 -39 194 0 18 -4 36 -9 41 -5 6 -19 64 -31 130 -13 66 -27 125 -31 130 -4
6 -10 33 -14 60 -11 87 -28 180 -36 190 -3 6 -17 57 -29 115 -24 109 -36 137
-80 181 -49 51 -147 73 -220 49z m230 -320 c19 -96 38 -179 41 -185 7 -11 22
-92 40 -210 7 -44 15 -82 19 -85 6 -4 44 -181 86 -400 8 -41 19 -84 23 -95 17
-38 21 -57 31 -146 6 -49 15 -97 20 -107 5 -9 16 -45 23 -78 l14 -61 -46 -16
c-61 -21 -143 -37 -189 -37 -21 0 -42 -4 -48 -9 -5 -5 -61 -19 -124 -31 -63
-12 -122 -26 -131 -30 -9 -5 -34 -11 -55 -15 -136 -21 -175 -29 -228 -47 -32
-10 -59 -18 -61 -16 -1 2 -21 100 -45 218 -23 118 -46 220 -50 225 -5 6 -11
33 -14 60 -11 85 -27 169 -37 190 -5 11 -32 126 -58 255 -27 129 -56 262 -64
295 -9 33 -20 96 -26 139 -6 44 -15 84 -20 90 -5 6 -12 30 -16 52 -6 40 -5 42
22 46 83 14 250 50 264 58 19 10 106 27 183 35 33 4 66 11 75 16 22 13 280 67
311 65 24 -1 26 -7 60 -176z m-54 -1568 c18 -11 34 -49 34 -77 0 -88 -90 -126
-150 -65 -62 63 -25 150 62 150 24 0 48 -4 54 -8z"/>
<path d="M2395 4018 c-66 -38 -56 -126 16 -143 36 -9 89 36 89 74 0 26 -31 71
-50 71 -4 0 -14 2 -22 5 -7 2 -22 -1 -33 -7z"/>
<path d="M4630 5596 c-32 -19 -48 -21 -176 -18 -104 2 -151 -1 -182 -12 -23
-8 -42 -13 -42 -10 0 7 -63 -29 -72 -41 -4 -5 -8 -6 -8 -2 0 8 -33 -7 -58 -27
-39 -31 -228 -227 -270 -280 -12 -16 -22 -26 -22 -23 0 6 -45 -41 -106 -112
-16 -18 -43 -48 -59 -65 -28 -29 -51 -76 -110 -231 -19 -48 -110 -270 -168
-407 -15 -36 3 -75 40 -84 15 -4 68 -25 117 -46 102 -45 166 -57 183 -36 7 8
28 54 46 103 19 50 46 116 61 147 14 31 26 61 26 67 0 6 14 40 30 76 17 36 30
68 30 71 0 3 27 33 60 66 33 32 60 57 60 54 0 -3 -14 -35 -30 -71 -17 -36 -39
-89 -49 -118 -11 -28 -49 -124 -86 -212 -36 -88 -73 -180 -82 -205 -8 -25 -24
-63 -35 -84 -31 -62 -60 -148 -62 -184 -1 -36 -2 -36 204 -116 47 -19 111 -45
142 -60 31 -14 61 -26 67 -26 6 0 51 -18 102 -40 50 -23 128 -55 171 -72 44
-16 92 -36 107 -44 14 -8 31 -14 38 -14 6 0 46 -16 87 -35 42 -19 87 -35 101
-35 27 0 49 27 61 75 6 25 22 63 74 180 5 11 12 31 16 45 3 14 22 58 40 98 19
40 34 77 34 83 0 6 11 35 25 65 14 30 25 57 25 59 0 3 8 24 19 48 10 23 36 84
57 136 l39 93 3 -73 c2 -70 -1 -82 -54 -214 -31 -77 -67 -168 -80 -203 -13
-35 -31 -76 -39 -92 -8 -16 -15 -38 -15 -49 0 -26 46 -63 106 -85 27 -10 80
-31 117 -47 83 -36 123 -36 132 1 5 25 90 235 150 375 8 17 17 41 21 55 4 14
17 48 29 75 56 123 53 100 56 482 2 347 2 360 -19 410 -12 29 -33 71 -47 93
-14 22 -25 44 -25 48 0 10 -88 93 -141 133 -21 16 -48 53 -67 91 -29 60 -79
118 -102 118 -5 0 -10 4 -10 9 0 14 -213 108 -265 117 -11 1 -33 6 -50 9 -70
15 -110 12 -145 -9z m240 -113 c25 -11 62 -26 83 -34 21 -7 52 -25 68 -39 l30
-25 -52 -35 c-28 -19 -63 -43 -78 -52 -14 -9 -30 -21 -36 -25 -5 -5 -27 -19
-47 -32 -35 -21 -38 -21 -39 -4 0 10 -2 25 -4 33 -20 85 -45 209 -45 223 0 15
6 17 38 14 20 -2 57 -13 82 -24z m-206 -57 c22 -102 47 -239 44 -242 -2 -1
-36 -6 -77 -10 l-74 -7 7 34 c4 19 12 81 18 139 5 58 11 113 12 123 1 10 8 22
15 26 29 19 40 7 55 -63z m-188 51 c31 0 31 0 23 -36 -4 -20 -10 -62 -13 -93
-4 -31 -8 -63 -11 -70 -6 -16 -11 -51 -20 -121 -7 -52 -6 -56 19 -72 22 -15
40 -17 109 -11 45 4 99 9 120 12 36 6 41 3 96 -53 31 -32 71 -74 88 -95 46
-54 66 -62 96 -38 14 11 47 53 74 93 26 39 51 74 55 75 4 2 8 8 8 13 0 5 9 19
19 31 10 13 30 36 43 52 l24 28 32 -27 c25 -21 31 -32 26 -49 -4 -11 -10 -23
-13 -26 -4 -3 -13 -21 -21 -40 -7 -19 -18 -41 -24 -49 -26 -33 -90 -206 -117
-311 -15 -63 -49 -167 -75 -230 -25 -63 -59 -146 -74 -185 -15 -38 -56 -137
-90 -220 -34 -82 -69 -168 -77 -190 -12 -35 -113 -276 -118 -282 -2 -4 -124
42 -270 102 -77 32 -167 68 -200 80 -33 13 -91 37 -130 54 -38 16 -119 49
-178 73 -122 49 -118 41 -72 143 14 29 25 58 25 63 0 4 13 35 29 68 15 32 32
70 36 84 4 14 30 79 57 145 27 66 67 163 88 215 21 52 57 139 79 192 22 54 43
109 47 123 3 14 10 25 15 25 5 0 9 5 9 11 0 6 14 30 30 54 17 24 30 47 30 51
0 4 6 15 13 23 19 23 101 231 92 231 -3 0 1 13 10 29 8 17 17 38 18 48 14 72
30 98 51 85 6 -3 25 -6 42 -5z m-183 -39 c-3 -18 -9 -37 -13 -43 -7 -9 -17
-44 -26 -90 -3 -18 -12 -39 -57 -135 -41 -87 -102 -166 -196 -255 -192 -181
-195 -184 -236 -291 -21 -55 -46 -115 -57 -134 -10 -19 -18 -40 -18 -47 0 -7
-13 -42 -30 -78 l-30 -65 -37 16 c-21 9 -59 23 -84 31 l-47 15 28 77 c15 42
39 103 54 136 15 33 34 80 43 105 8 25 28 72 43 105 15 33 30 72 34 87 5 23
156 209 156 193 0 -3 21 18 46 47 26 29 56 62 68 73 11 11 40 41 63 67 23 25
44 43 47 40 3 -3 6 1 6 8 0 36 186 170 236 170 10 0 12 -9 7 -32z m803 -225
c-26 -32 -54 -66 -62 -76 -7 -9 -14 -21 -14 -26 0 -4 -9 -18 -19 -30 -11 -12
-26 -32 -34 -44 -15 -22 -16 -22 -71 33 l-55 55 57 38 c70 46 96 64 130 94 15
13 32 23 38 23 6 0 17 7 24 16 12 13 15 13 33 -5 20 -20 20 -20 -27 -78z m268
-205 c52 -116 50 -97 41 -558 -4 -207 -7 -235 -35 -291 -11 -21 -20 -43 -20
-50 0 -6 -18 -52 -39 -102 -41 -97 -115 -280 -125 -309 -6 -21 -44 -23 -71 -5
-11 8 -41 22 -66 31 l-46 18 30 71 c16 40 33 77 37 82 4 6 10 23 14 38 4 15
20 56 36 91 45 100 52 138 48 280 -7 312 -7 317 46 471 27 77 56 150 65 161 9
12 26 42 36 68 11 25 22 46 25 46 3 0 14 -19 24 -42z"/>
<path d="M4394 4832 c-42 -29 -58 -107 -26 -134 54 -48 111 -46 142 5 23 38
18 71 -18 110 -25 27 -73 36 -98 19z"/>
<path d="M4735 4684 c-38 -19 -45 -31 -45 -74 1 -44 19 -68 59 -80 48 -13 85
4 106 49 19 44 13 66 -31 100 -32 25 -49 26 -89 5z"/>
<path d="M4262 4516 c-40 -43 -45 -64 -25 -99 49 -84 159 -66 168 26 7 70 -98
123 -143 73z"/>
<path d="M4591 4374 c-12 -15 -21 -32 -22 -38 0 -6 -2 -19 -4 -29 -2 -10 9
-33 25 -50 22 -25 36 -32 67 -32 44 0 62 14 82 62 15 36 6 60 -35 92 -38 30
-87 28 -113 -5z"/>
<path d="M4173 4231 c-110 -31 -81 -171 35 -171 42 0 82 57 74 106 -7 43 -65
78 -109 65z"/>
<path d="M4500 4093 c-43 -16 -69 -70 -55 -112 8 -26 51 -53 90 -56 67 -6 109
86 64 138 -24 27 -71 41 -99 30z"/>
</g>
</svg>
