<svg xmlns="http://www.w3.org/2000/svg" version="1.1" xmlns:xlink="http://www.w3.org/1999/xlink" xmlns:svgjs="http://svgjs.com/svgjs" width="1440" height="250" preserveAspectRatio="none" viewBox="0 0 1440 250"><g mask="url(&quot;#SvgjsMask1263&quot;)" fill="none"><rect width="1440" height="250" x="0" y="0" fill="url(#SvgjsLinearGradient1264)"></rect><path d="M9 250L259 0L479.5 0L229.5 250z" fill="url(#SvgjsLinearGradient1265)"></path><path d="M271.6 250L521.6 0L854.6 0L604.6 250z" fill="url(#SvgjsLinearGradient1265)"></path><path d="M483.20000000000005 250L733.2 0L926.7 0L676.7 250z" fill="url(#SvgjsLinearGradient1265)"></path><path d="M724.8000000000001 250L974.8000000000001 0L1229.8000000000002 0L979.8000000000001 250z" fill="url(#SvgjsLinearGradient1265)"></path><path d="M1397 250L1147 0L1087 0L1337 250z" fill="url(#SvgjsLinearGradient1266)"></path><path d="M1200.4 250L950.4000000000001 0L894.9000000000001 0L1144.9 250z" fill="url(#SvgjsLinearGradient1266)"></path><path d="M944.8 250L694.8 0L562.8 0L812.8 250z" fill="url(#SvgjsLinearGradient1266)"></path><path d="M702.1999999999999 250L452.19999999999993 0L305.19999999999993 0L555.1999999999999 250z" fill="url(#SvgjsLinearGradient1266)"></path><path d="M1313.1525262261546 250L1440 123.15252622615452L1440 250z" fill="url(#SvgjsLinearGradient1265)"></path><path d="M0 250L126.84747377384548 250L 0 123.15252622615452z" fill="url(#SvgjsLinearGradient1266)"></path></g><defs><mask id="SvgjsMask1263"><rect width="1440" height="250" fill="#ffffff"></rect></mask><linearGradient x1="0%" y1="50%" x2="100%" y2="50%" gradientUnits="userSpaceOnUse" id="SvgjsLinearGradient1264"><stop stop-color="#0e2a47" offset="0"></stop><stop stop-color="rgba(15, 56, 110, 1)" offset="1"></stop></linearGradient><linearGradient x1="0%" y1="100%" x2="100%" y2="0%" id="SvgjsLinearGradient1265"><stop stop-color="rgba(15, 70, 185, 0.2)" offset="0"></stop><stop stop-opacity="0" stop-color="rgba(15, 70, 185, 0.2)" offset="0.66"></stop></linearGradient><linearGradient x1="100%" y1="100%" x2="0%" y2="0%" id="SvgjsLinearGradient1266"><stop stop-color="rgba(15, 70, 185, 0.2)" offset="0"></stop><stop stop-opacity="0" stop-color="rgba(15, 70, 185, 0.2)" offset="0.66"></stop></linearGradient></defs></svg>